<?xml version="1.0" standalone="no"?><!DOCTYPE svg PUBLIC "-//W3C//DTD SVG 1.1//EN" "http://www.w3.org/Graphics/SVG/1.1/DTD/svg11.dtd"><svg t="1540448215818" class="icon" style="" viewBox="0 0 1024 1024" version="1.1" xmlns="http://www.w3.org/2000/svg" p-id="4152" xmlns:xlink="http://www.w3.org/1999/xlink" width="200" height="200"><defs><style type="text/css"></style></defs><path d="M850.727 116.266H171.593c-72.728 0-108.108 35.866-108.108 107.608v430.43c0 71.746 33.193 105.653 104.108 105.653h104.112l-12.808 109.564a35.679 35.679 0 0 0 19.029 31.562 35.753 35.753 0 0 0 17.005 4.307c6.988 0 13.982-2.014 19.962-6.028L521.57 759.957h333.156c72.081 0 104.109-33.906 104.109-105.653v-430.43c0-71.742-36.033-107.608-108.108-107.608zM303.159 490.172c-28.658 0-51.949-23.3-51.949-51.873 0-28.57 23.292-51.968 51.949-51.968 28.655 0 51.95 23.304 51.95 51.968-0.005 28.668-23.392 51.873-51.95 51.873z m207.887 0c-28.809 0-52.214-23.3-52.214-51.873 0-28.57 23.41-51.968 52.214-51.968 28.806 0 52.211 23.304 52.211 51.968 0.001 28.668-23.507 51.873-52.21 51.873z m208.21 0c-28.81 0-52.133-23.3-52.133-51.873 0-28.57 23.323-51.968 52.132-51.968 28.797 0 52.207 23.304 52.207 51.968 0 28.668-23.405 51.873-52.207 51.873z m0 0" p-id="4153"></path></svg>